<svg version="1.1" id="Layer_1" xmlns="http://www.w3.org/2000/svg" xmlns:xlink="http://www.w3.org/1999/xlink" x="0px" y="0px"
	 width="100%" viewBox="0 0 200 200" enable-background="new 0 0 200 200" xml:space="preserve">
<path fill="#FCFCFC" opacity="1.000000" stroke="none" 
	d="
M201.000000,69.000000 
	C201.000000,113.333336 201.000000,157.166672 201.000000,201.000000 
	C134.333328,201.000000 67.666664,201.000000 1.000000,201.000000 
	C1.000000,134.333328 1.000000,67.666664 1.000000,1.000000 
	C67.666664,1.000000 134.333328,1.000000 201.000000,1.000000 
	C201.000000,23.500000 201.000000,46.000000 201.000000,69.000000 
M30.500816,12.205365 
	C25.502712,12.205573 20.489990,12.443484 15.510733,12.137256 
	C10.796613,11.847334 9.531565,13.843860 9.542745,18.298874 
	C9.657718,64.115112 9.672862,109.931946 9.521749,155.747971 
	C9.506199,160.462830 11.137332,161.761276 15.623493,161.712357 
	C33.114994,161.521576 50.609810,161.634552 68.103394,161.634567 
	C69.687431,161.634567 71.271461,161.634567 73.320763,161.634567 
	C71.959930,166.676865 70.828049,170.996231 69.626396,175.296097 
	C67.421616,183.185379 67.404419,183.177704 59.318703,183.323898 
	C58.321476,183.341919 57.102097,183.066498 56.380116,183.534973 
	C55.265953,184.257935 53.771702,185.508286 53.774776,186.530914 
	C53.777931,187.580734 55.201077,188.996170 56.344448,189.565750 
	C57.426502,190.104767 58.951866,189.788910 60.282269,189.789246 
	C87.438972,189.796127 114.595673,189.795166 141.752380,189.791718 
	C142.917450,189.791565 144.305069,190.143280 145.194107,189.637253 
	C146.448807,188.923111 147.334641,187.560883 148.378159,186.475723 
	C147.283340,185.440048 146.319534,183.761795 145.065704,183.506180 
	C142.663757,183.016464 140.085403,183.470810 137.603775,183.258469 
	C136.444443,183.159286 134.555496,182.659424 134.333069,181.932465 
	C132.327530,175.377563 130.618530,168.731918 128.692734,161.634552 
	C148.314026,161.634552 167.118591,161.641464 185.923157,161.630707 
	C192.236313,161.627090 192.382187,161.485046 192.383194,155.198563 
	C192.390396,109.881859 192.389435,64.565147 192.384842,19.248446 
	C192.384140,12.344085 192.246292,12.207803 185.443970,12.207349 
	C134.129471,12.203926 82.814957,12.205414 30.500816,12.205365 
z"/>
<path fill="#0F0F0F" opacity="1.000000" stroke="none" 
	d="
M31.000637,12.205366 
	C82.814957,12.205414 134.129471,12.203926 185.443970,12.207349 
	C192.246292,12.207803 192.384140,12.344085 192.384842,19.248446 
	C192.389435,64.565147 192.390396,109.881859 192.383194,155.198563 
	C192.382187,161.485046 192.236313,161.627090 185.923157,161.630707 
	C167.118591,161.641464 148.314026,161.634552 128.692734,161.634552 
	C130.618530,168.731918 132.327530,175.377563 134.333069,181.932465 
	C134.555496,182.659424 136.444443,183.159286 137.603775,183.258469 
	C140.085403,183.470810 142.663757,183.016464 145.065704,183.506180 
	C146.319534,183.761795 147.283340,185.440048 148.378159,186.475723 
	C147.334641,187.560883 146.448807,188.923111 145.194107,189.637253 
	C144.305069,190.143280 142.917450,189.791565 141.752380,189.791718 
	C114.595673,189.795166 87.438972,189.796127 60.282269,189.789246 
	C58.951866,189.788910 57.426502,190.104767 56.344448,189.565750 
	C55.201077,188.996170 53.777931,187.580734 53.774776,186.530914 
	C53.771702,185.508286 55.265953,184.257935 56.380116,183.534973 
	C57.102097,183.066498 58.321476,183.341919 59.318703,183.323898 
	C67.404419,183.177704 67.421616,183.185379 69.626396,175.296097 
	C70.828049,170.996231 71.959930,166.676865 73.320763,161.634567 
	C71.271461,161.634567 69.687431,161.634567 68.103394,161.634567 
	C50.609810,161.634552 33.114994,161.521576 15.623493,161.712357 
	C11.137332,161.761276 9.506199,160.462830 9.521749,155.747971 
	C9.672862,109.931946 9.657718,64.115112 9.542745,18.298874 
	C9.531565,13.843860 10.796613,11.847334 15.510733,12.137256 
	C20.489990,12.443484 25.502712,12.205573 31.000637,12.205366 
M132.499985,127.945808 
	C150.259399,127.945808 168.018799,127.945808 185.724518,127.945808 
	C185.724518,91.213440 185.724518,55.011600 185.724518,18.964417 
	C129.016800,18.964417 72.641899,18.964417 16.291443,18.964417 
	C16.291443,55.424225 16.291443,91.606262 16.291443,127.945808 
	C54.926479,127.945808 93.213226,127.945808 132.499985,127.945808 
M15.939541,138.665726 
	C15.939541,144.103165 15.939541,149.540604 15.939541,154.893738 
	C72.950035,154.893738 129.355377,154.893738 185.736633,154.893738 
	C185.736633,147.882599 185.736633,141.155823 185.736633,134.159760 
	C183.607590,134.159760 181.799576,134.159744 179.991577,134.159744 
	C145.828323,134.159744 111.665062,134.159729 77.501808,134.159744 
	C58.337055,134.159744 39.172142,134.197739 20.007732,134.116196 
	C17.334810,134.104813 15.286868,134.219742 15.939541,138.665726 
M122.680626,163.689911 
	C121.537849,163.007156 120.401947,161.744522 119.251236,161.730881 
	C107.089500,161.586746 94.924377,161.571518 82.763588,161.751068 
	C81.559792,161.768845 79.654305,163.084229 79.306877,164.185974 
	C77.367210,170.336929 75.807083,176.607574 74.056229,183.062164 
	C92.123482,183.062164 109.877464,183.062164 127.929543,183.062164 
	C126.199875,176.681290 124.553566,170.607956 122.680626,163.689911 
z"/>
<path fill="#FEFEFE" opacity="1.000000" stroke="none" 
	d="
M131.999969,127.945808 
	C93.213226,127.945808 54.926479,127.945808 16.291443,127.945808 
	C16.291443,91.606262 16.291443,55.424225 16.291443,18.964417 
	C72.641899,18.964417 129.016800,18.964417 185.724518,18.964417 
	C185.724518,55.011600 185.724518,91.213440 185.724518,127.945808 
	C168.018799,127.945808 150.259399,127.945808 131.999969,127.945808 
M85.467384,112.001389 
	C87.799751,112.001389 90.155197,111.791542 92.459702,112.044937 
	C97.304543,112.577660 98.903801,110.534142 98.862831,105.758736 
	C98.687050,85.268784 98.707489,64.775902 98.852501,44.285469 
	C98.882851,39.996983 97.425041,38.340931 93.061928,38.371208 
	C73.071220,38.509941 53.078308,38.521568 33.087887,38.363880 
	C28.579624,38.328316 26.938604,39.812698 26.981838,44.441341 
	C27.173223,64.931007 27.157967,85.424248 26.991295,105.914345 
	C26.954813,110.399506 28.334534,112.137093 33.000488,112.081902 
	C50.157597,111.878975 67.318558,112.001389 85.467384,112.001389 
M145.500137,90.315437 
	C133.350677,90.315453 121.197876,90.173424 109.055107,90.458603 
	C107.086258,90.504852 103.627495,92.304802 103.513878,93.538727 
	C103.211578,96.821831 106.288628,96.880760 108.903427,96.877541 
	C129.041550,96.852768 149.179733,96.857826 169.317886,96.871010 
	C171.925690,96.872711 174.952072,96.781219 174.622375,93.431747 
	C174.504639,92.235542 171.311768,90.538269 169.461426,90.456764 
	C161.820419,90.120171 154.155975,90.315559 145.500137,90.315437 
M172.631531,72.228127 
	C167.137421,72.165474 161.643387,72.057030 156.149200,72.048813 
	C140.152557,72.024872 124.154594,71.951843 108.161087,72.177429 
	C106.536148,72.200348 104.937897,74.114700 103.327255,75.151321 
	C104.901283,76.192810 106.370659,77.849182 108.072647,78.138855 
	C110.987617,78.634972 114.048096,78.276291 117.047478,78.276283 
	C134.543839,78.276253 152.040283,78.305077 169.536530,78.258865 
	C174.956635,78.244553 175.729630,77.017113 172.631531,72.228127 
M143.965759,56.492805 
	C142.432877,55.599567 140.916153,53.966469 139.364487,53.932541 
	C128.885239,53.703373 118.395058,53.679871 107.918137,53.957146 
	C106.362679,53.998306 104.858421,55.974136 103.330482,57.054909 
	C104.819473,58.037258 106.289497,59.835773 107.800491,59.870876 
	C118.445427,60.118198 129.100800,60.101364 139.747070,59.885292 
	C141.166534,59.856483 142.553574,58.230652 143.965759,56.492805 
z"/>
<path fill="#FDFDFD" opacity="1.000000" stroke="none" 
	d="
M15.939591,138.185883 
	C15.286868,134.219742 17.334810,134.104813 20.007732,134.116196 
	C39.172142,134.197739 58.337055,134.159744 77.501808,134.159744 
	C111.665062,134.159729 145.828323,134.159744 179.991577,134.159744 
	C181.799576,134.159744 183.607590,134.159760 185.736633,134.159760 
	C185.736633,141.155823 185.736633,147.882599 185.736633,154.893738 
	C129.355377,154.893738 72.950035,154.893738 15.939541,154.893738 
	C15.939541,149.540604 15.939541,144.103165 15.939591,138.185883 
z"/>
<path fill="#FEFEFE" opacity="1.000000" stroke="none" 
	d="
M122.793945,164.112274 
	C124.553566,170.607956 126.199875,176.681290 127.929543,183.062164 
	C109.877464,183.062164 92.123482,183.062164 74.056229,183.062164 
	C75.807083,176.607574 77.367210,170.336929 79.306877,164.185974 
	C79.654305,163.084229 81.559792,161.768845 82.763588,161.751068 
	C94.924377,161.571518 107.089500,161.586746 119.251236,161.730881 
	C120.401947,161.744522 121.537849,163.007156 122.793945,164.112274 
z"/>
<path fill="#111111" opacity="1.000000" stroke="none" 
	d="
M84.972733,112.001389 
	C67.318558,112.001389 50.157597,111.878975 33.000488,112.081902 
	C28.334534,112.137093 26.954813,110.399506 26.991295,105.914345 
	C27.157967,85.424248 27.173223,64.931007 26.981838,44.441341 
	C26.938604,39.812698 28.579624,38.328316 33.087887,38.363880 
	C53.078308,38.521568 73.071220,38.509941 93.061928,38.371208 
	C97.425041,38.340931 98.882851,39.996983 98.852501,44.285469 
	C98.707489,64.775902 98.687050,85.268784 98.862831,105.758736 
	C98.903801,110.534142 97.304543,112.577660 92.459702,112.044937 
	C90.155197,111.791542 87.799751,112.001389 84.972733,112.001389 
M34.868763,44.882023 
	C34.368259,46.434044 33.441963,47.983490 33.432552,49.538486 
	C33.328674,66.702164 33.360657,83.866714 33.379166,101.031006 
	C33.380730,102.480003 33.550430,103.928810 33.651085,105.521133 
	C53.267677,105.521133 72.522697,105.521133 92.006210,105.521133 
	C92.006210,85.250641 92.006210,65.210594 92.006210,44.857342 
	C73.080421,44.857342 54.445179,44.857342 34.868763,44.882023 
z"/>
<path fill="#1B1B1B" opacity="1.000000" stroke="none" 
	d="
M146.000153,90.315453 
	C154.155975,90.315559 161.820419,90.120171 169.461426,90.456764 
	C171.311768,90.538269 174.504639,92.235542 174.622375,93.431747 
	C174.952072,96.781219 171.925690,96.872711 169.317886,96.871010 
	C149.179733,96.857826 129.041550,96.852768 108.903427,96.877541 
	C106.288628,96.880760 103.211578,96.821831 103.513878,93.538727 
	C103.627495,92.304802 107.086258,90.504852 109.055107,90.458603 
	C121.197876,90.173424 133.350677,90.315453 146.000153,90.315453 
z"/>
<path fill="#050505" opacity="1.000000" stroke="none" 
	d="
M172.989563,72.457382 
	C175.729630,77.017113 174.956635,78.244553 169.536530,78.258865 
	C152.040283,78.305077 134.543839,78.276253 117.047478,78.276283 
	C114.048096,78.276291 110.987617,78.634972 108.072647,78.138855 
	C106.370659,77.849182 104.901283,76.192810 103.327255,75.151321 
	C104.937897,74.114700 106.536148,72.200348 108.161087,72.177429 
	C124.154594,71.951843 140.152557,72.024872 156.149200,72.048813 
	C161.643387,72.057030 167.137421,72.165474 172.989563,72.457382 
z"/>
<path fill="#030303" opacity="1.000000" stroke="none" 
	d="
M143.960693,56.918602 
	C142.553574,58.230652 141.166534,59.856483 139.747070,59.885292 
	C129.100800,60.101364 118.445427,60.118198 107.800491,59.870876 
	C106.289497,59.835773 104.819473,58.037258 103.330482,57.054909 
	C104.858421,55.974136 106.362679,53.998306 107.918137,53.957146 
	C118.395058,53.679871 128.885239,53.703373 139.364487,53.932541 
	C140.916153,53.966469 142.432877,55.599567 143.960693,56.918602 
z"/>
<path fill="#F6F6F6" opacity="1.000000" stroke="none" 
	d="
M35.339348,44.869682 
	C54.445179,44.857342 73.080421,44.857342 92.006210,44.857342 
	C92.006210,65.210594 92.006210,85.250641 92.006210,105.521133 
	C72.522697,105.521133 53.267677,105.521133 33.651085,105.521133 
	C33.550430,103.928810 33.380730,102.480003 33.379166,101.031006 
	C33.360657,83.866714 33.328674,66.702164 33.432552,49.538486 
	C33.441963,47.983490 34.368259,46.434044 35.339348,44.869682 
M49.354172,74.377304 
	C44.303280,76.656624 41.638931,80.472794 41.705620,86.108200 
	C41.752899,90.103935 41.370426,94.147202 41.897209,98.072990 
	C42.095543,99.551056 44.285412,101.877083 45.618240,101.912674 
	C57.099392,102.219345 68.594643,102.200974 80.078201,101.944603 
	C81.436028,101.914284 83.805771,99.949646 83.898926,98.742226 
	C84.294472,93.615578 84.497032,88.375122 83.859695,83.290344 
	C82.844795,75.193375 74.527618,71.844429 68.210732,76.502449 
	C64.559975,79.194489 60.968048,78.782715 57.147697,76.281265 
	C55.176250,74.990417 52.483940,74.800507 49.354172,74.377304 
M68.858322,72.747734 
	C76.060829,67.676003 77.887589,60.242943 73.473549,53.968494 
	C69.676582,48.571213 62.400471,46.880787 56.686600,50.068459 
	C50.886913,53.304012 48.498436,60.254044 51.090801,66.351219 
	C53.868095,72.883339 60.508175,75.488510 68.858322,72.747734 
z"/>
<path fill="#050505" opacity="1.000000" stroke="none" 
	d="
M49.735756,74.245224 
	C52.483940,74.800507 55.176250,74.990417 57.147697,76.281265 
	C60.968048,78.782715 64.559975,79.194489 68.210732,76.502449 
	C74.527618,71.844429 82.844795,75.193375 83.859695,83.290344 
	C84.497032,88.375122 84.294472,93.615578 83.898926,98.742226 
	C83.805771,99.949646 81.436028,101.914284 80.078201,101.944603 
	C68.594643,102.200974 57.099392,102.219345 45.618240,101.912674 
	C44.285412,101.877083 42.095543,99.551056 41.897209,98.072990 
	C41.370426,94.147202 41.752899,90.103935 41.705620,86.108200 
	C41.638931,80.472794 44.303280,76.656624 49.735756,74.245224 
M55.228592,82.505363 
	C53.692287,81.928185 51.522270,80.440666 50.758076,80.972641 
	C49.376087,81.934669 48.285519,84.031425 48.059067,85.781898 
	C47.642418,89.002617 47.940155,92.315742 47.940155,95.585632 
	C58.223766,95.585632 68.058411,95.585632 78.491737,95.585632 
	C76.563690,90.221397 80.875740,83.709221 73.908524,80.037483 
	C68.393288,84.774254 62.477509,86.172363 55.228592,82.505363 
z"/>
<path fill="#0A0A0A" opacity="1.000000" stroke="none" 
	d="
M68.486923,72.889214 
	C60.508175,75.488510 53.868095,72.883339 51.090801,66.351219 
	C48.498436,60.254044 50.886913,53.304012 56.686600,50.068459 
	C62.400471,46.880787 69.676582,48.571213 73.473549,53.968494 
	C77.887589,60.242943 76.060829,67.676003 68.486923,72.889214 
M65.807587,55.357063 
	C59.624599,54.282589 55.072712,57.475578 56.606266,62.275009 
	C57.315605,64.494949 59.911034,67.093201 62.079823,67.569679 
	C63.970703,67.985092 67.267509,66.218109 68.508926,64.423386 
	C70.574776,61.436752 69.682213,58.114883 65.807587,55.357063 
z"/>
<path fill="#FAFAFA" opacity="1.000000" stroke="none" 
	d="
M55.551788,82.698517 
	C62.477509,86.172363 68.393288,84.774254 73.908524,80.037483 
	C80.875740,83.709221 76.563690,90.221397 78.491737,95.585632 
	C68.058411,95.585632 58.223766,95.585632 47.940155,95.585632 
	C47.940155,92.315742 47.642418,89.002617 48.059067,85.781898 
	C48.285519,84.031425 49.376087,81.934669 50.758076,80.972641 
	C51.522270,80.440666 53.692287,81.928185 55.551788,82.698517 
z"/>
<path fill="#F7F7F7" opacity="1.000000" stroke="none" 
	d="
M66.145279,55.595459 
	C69.682213,58.114883 70.574776,61.436752 68.508926,64.423386 
	C67.267509,66.218109 63.970703,67.985092 62.079823,67.569679 
	C59.911034,67.093201 57.315605,64.494949 56.606266,62.275009 
	C55.072712,57.475578 59.624599,54.282589 66.145279,55.595459 
z"/>
</svg>